<?xml version="1.0" encoding="UTF-8"?><svg id="a" xmlns="http://www.w3.org/2000/svg" width="246.17401" height="40" viewBox="0 0 246.17401 40"><path d="M0,31.08784V.19769H30.7402V31.08784H0ZM6.32673,5.01116V27.16784L25.60433,15.84021,6.32673,5.01116Z" fill="#fff"/><path d="M75.96577,31.08784h-11.87121V.27017h11.94994c8.85218,0,14.16424,7.00402,14.16424,15.92492s-4.72725,14.89275-14.24296,14.89275Zm-.51608-25.58309h-4.87345V26.29562h5.23708c6.93403,0,7.96621-5.89812,7.89373-10.39544,.005-3.53887-1.69196-10.39544-8.25736-10.39544Z" fill="#fff"/><path d="M58.20894,31.08784l-2.3605-6.85656h-11.36263l-2.06434,6.85656h-6.19552L46.62638,.19769h6.2705l11.65628,30.89015h-6.34423Zm-4.52231-13.12082l-3.88751-11.2814-3.41016,11.2789-.27866,1.91689h7.85499l-.27866-1.91439Z" fill="#fff"/><rect x="91.88444" y=".19769" width="6.5654" height="30.89015" fill="#fff"/><path d="M109.17768,29.54209c-1.48684-1.30349-2.3033-3.21026-2.22054-5.18585,0-.20493,.02957-.57107,.08872-1.0984l.17494-1.18587c-.00007-.11634,.04786-.22755,.13246-.3074,.09403-.09108,.22164-.13904,.35238-.13246h3.124c.12454-.00926,.24634,.03965,.32989,.13246,.07222,.08489,.09708,.20031,.06623,.3074l-.13246,.96594c-.03562,.23272-.05025,.46818-.04374,.70353-.04548,1.1255,.41253,2.21281,1.2496,2.96655,.98435,.79975,2.23292,1.20108,3.49889,1.12464,1.42387,.07164,2.81475-.44424,3.84753-1.42705,.95514-.95951,1.47193-2.27068,1.42829-3.62384,.01267-1.02499-.4107-2.00711-1.16463-2.70164-1.26434-1.08998-2.64273-2.0402-4.11119-2.8341-1.24549-.69047-2.44927-1.45362-3.6051-2.28552-.90387-.6647-1.66815-1.50073-2.24929-2.46047-.60357-1.03942-.90641-2.22612-.87472-3.42766,.01031-.38196,.03992-.76316,.08872-1.14214,.18787-2.27078,1.29126-4.36748,3.05653-5.80815C114.06129,.68108,116.35577-.06547,118.69714,.01275c2.14756-.11756,4.2602,.581,5.91437,1.95563,1.46699,1.34077,2.2642,3.26285,2.1768,5.24833,0,.23492-.02957,.64521-.08872,1.23086l-.12496,1.00968c-.00018,.11665-.04803,.22816-.13246,.30865-.09513,.08777-.22195,.1329-.35114,.12496h-3.17274c-.12328,.01096-.24481-.03507-.32989-.12496-.07264-.08517-.09753-.20118-.06623-.30865l.13246-.92221c.03366-.24844,.04829-.49909,.04374-.74976,.04321-1.12294-.39668-2.2106-1.20837-2.9878-.91432-.80106-2.10656-1.21118-3.32019-1.14214-1.22356-.05136-2.42487,.33843-3.38517,1.0984-.91531,.79791-1.48331,1.92135-1.58325,3.1315-.03486,.21769-.0495,.43815-.04374,.65854-.02259,.99989,.38732,1.96091,1.12464,2.63666,1.25506,1.05013,2.6186,1.96334,4.06745,2.72413,1.69945,1.05466,2.98196,1.91147,3.84753,2.57043,.85727,.65299,1.58747,1.45773,2.15431,2.37424,.58904,.98853,.88624,2.1236,.85722,3.27396,0,.20493-.02957,.57107-.08872,1.0984-.20179,2.34595-1.33339,4.51377-3.14275,6.02058-1.92401,1.53506-4.33435,2.32994-6.79408,2.24053-2.17268,.11593-4.31157-.57522-6.00557-1.94063Z" fill="#fff"/><path d="M149.2549,8.75996h3.24896c.10953-.00461,.21509,.04148,.28615,.12496,.0718,.08509,.09662,.2003,.06623,.3074l-2.59417,21.04829c-.81725,6.50626-4.59687,9.75939-11.33888,9.75939-.58731,0-1.04092-.01499-1.36332-.04374-.22045-.02195-.38135-.21845-.3594-.4389,.0015-.01502,.00384-.02994,.00702-.0447l.43986-2.94406c.05832-.3224,.21951-.45444,.4836-.39612,2.66581,.11746,4.6077-.30699,5.82565-1.27334,1.37114-1.28036,2.1847-3.04793,2.26553-4.92218l.08747-.83473c.02874-.05748,.02249-.10247-.02124-.13121s-.09622-.01499-.15495,.04374c-1.24634,1.4029-3.05298,2.1775-4.92844,2.11307-1.65674,.07314-3.27057-.53876-4.46233-1.69196-1.18753-1.27876-1.81313-2.98004-1.73695-4.72349-.02486-.71129-.00274-1.42344,.06623-2.13182,.07248-.89388,.15286-1.77985,.24117-2.6579,.02998-.20493,.13287-.92304,.30865-2.15431,.12217-1.00032,.34318-1.98608,.65979-2.94281,.40628-1.80865,1.36742-3.44521,2.74912-4.68101,1.33345-1.15678,3.04988-1.77555,4.81471-1.7357,1.764-.13443,3.47366,.64539,4.52856,2.06559,.11622,.11746,.20369,.08747,.26366-.08747l.13246-1.18712c.01347-.25485,.22989-.45119,.48485-.43986Zm-1.80193,11.12145c.20578-1.41337,.3376-2.83652,.39488-4.26364,.03319-.93276-.2888-1.84337-.90096-2.54794-.62257-.68329-1.51709-1.05383-2.44048-1.01093-.99961-.00977-1.96582,.35948-2.70414,1.03342-.78048,.69447-1.33862,1.60385-1.60448,2.61417-.3344,1.37514-.58479,2.76935-.74976,4.17492-.18141,1.34034-.28447,2.69012-.30865,4.04246-.01258,.97193,.34068,1.91307,.98968,2.63666,.64408,.67853,1.54939,1.04648,2.48421,1.00968,1.00371,.01948,1.97768-.34119,2.72663-1.00968,.76786-.68521,1.30552-1.59074,1.53951-2.59292,.20577-1.26376,.39695-2.62583,.57357-4.0862Z" fill="#fff"/><path d="M169.37098,10.03206c1.0407,1.21895,1.56875,2.79366,1.47328,4.3936,0,.26325-.02957,.74643-.08872,1.44954l-1.80193,14.80903c-.01478,.25372-.22961,.44912-.48359,.43986h-3.24897c-.29408,0-.41153-.14662-.35238-.43986l1.7157-14.19297c.03348-.29032,.04809-.58251,.04374-.87472,.05854-.93845-.24012-1.86431-.83599-2.59167-.61769-.64111-1.48569-.97872-2.37424-.92346-1.09956-.01738-2.15755,.41983-2.92406,1.20836-.83841,.87711-1.34368,2.01981-1.42829,3.23022l-1.75944,14.14924c-.01478,.25372-.22961,.44912-.4836,.43986h-3.24896c-.11088,.00317-.21683-.04587-.28615-.13246-.07328-.08436-.09827-.20036-.06623-.3074l2.63791-21.49315c.01601-.24904,.22533-.4413,.47484-.4361h3.24896c.29241,0,.41111,.1462,.35238,.43861l-.17619,1.36207c0,.08872,.02249,.13996,.06623,.15495s.09497-.02249,.1537-.10997c1.30404-1.45453,3.19328-2.24519,5.14461-2.15306,1.57676-.10674,3.12349,.46845,4.24738,1.5795Z" fill="#fff"/><path d="M186.76043,8.75996h3.21023c.12323-.01059,.24462,.03538,.3299,.12496,.07158,.08522,.09595,.20051,.06498,.3074l-2.6379,21.49315c-.01478,.25372-.22961,.44912-.48359,.43986h-3.24897c-.29366,0-.40987-.1462-.35115-.43986l.21992-1.97687c.02873-.08872,.01375-.13871-.04498-.1537s-.10247,.02124-.1312,.10872c-.60165,.86977-1.40014,1.5852-2.33051,2.08808-.92101,.48644-1.94878,.73554-2.9903,.72477-1.66161,.08997-3.27567-.57162-4.3961-1.80192-1.10825-1.35725-1.65864-3.08528-1.5395-4.83346-.01102-1.63123,.1068-3.26077,.35238-4.87345,.17885-1.73421,.48712-3.45262,.92221-5.14086,.4069-1.80841,1.36793-3.44479,2.74912-4.68101,1.34767-1.16197,3.0796-1.78071,4.85845-1.7357,.97474-.02713,1.93887,.20807,2.7916,.68103,.78966,.47,1.40067,1.18915,1.73695,2.04435,.02873,.08747,.06622,.12496,.10996,.10872s.07997-.06498,.10996-.15245l.21992-1.89065c.01346-.25253,.22583-.44826,.47861-.44111Zm-1.80317,11.20518c.20322-1.42642,.30636-2.86531,.30864-4.30613,.06668-.93984-.23291-1.86903-.83599-2.59292-.6117-.68521-1.5006-1.05684-2.41798-1.01093-1.01616-.01404-2.00206,.34573-2.77036,1.01093-.7985,.68496-1.35392,1.60992-1.58324,2.63666-.29387,1.3936-.51369,2.80179-.65853,4.21865-.20738,1.41279-.33961,2.83559-.39613,4.26239-.04181,.96858,.2973,1.91503,.94469,2.63666,.65824,.68521,1.58004,1.0532,2.5292,1.00968,.99314,.01245,1.95313-.35705,2.68164-1.03217,.76504-.68981,1.29031-1.60552,1.49952-2.61417,.31072-1.39305,.54392-2.80227,.69853-4.22115v.0025Z" fill="#fff"/><path d="M200.50355,29.91572c-1.21904-.89708-1.92455-2.33186-1.89065-3.84502-.00568-.22081,.00894-.44167,.04374-.65979l.08748-.43986c.00721-.23968,.20017-.4321,.43987-.43861h3.03402c.12453-.00926,.24635,.03965,.3299,.13246,.072,.0845,.09686,.19945,.06622,.30615l-.04374,.26492c-.08948,.78991,.23453,1.57017,.85723,2.06434,.73146,.60974,1.66556,.922,2.61666,.87472,1.03711,.04195,2.0555-.28526,2.87409-.92346,.71369-.54239,1.13035-1.38914,1.12463-2.28552,.01354-.51931-.17559-1.0235-.52733-1.4058-.35202-.38095-.77696-.68733-1.2496-.90096-.48401-.21826-1.22378-.51817-2.21929-.89971-1.5584-.4815-3.02344-1.22481-4.33236-2.19805-1.10128-.91686-1.69763-2.30511-1.60448-3.73506-.09526-2.0357,.7474-4.00283,2.28677-5.3383,1.67318-1.35512,3.78459-2.05077,5.93561-1.95563,1.78782-.09924,3.55384,.43136,4.99091,1.49952,1.20493,.97045,1.88117,2.45264,1.82443,3.99872,.00439,.29221-.01024,.5844-.04374,.87472v.08747c-.01478,.25372-.22961,.44912-.48359,.43986h-2.9903c-.26324,0-.39529-.14662-.39613-.43986l.04498-.17494c.10992-.78734-.17857-1.57784-.76975-2.10933-.71871-.59828-1.63982-.89756-2.57294-.83598-1.00445-.04591-1.99294,.26382-2.7916,.87472-.69344,.53426-1.09296,1.3653-1.07716,2.24054-.03135,.70359,.32245,1.36855,.92345,1.7357,.98005,.56931,2.01028,1.04741,3.07777,1.42829,1.0591,.36776,2.09448,.80053,3.10026,1.29584,.84308,.43479,1.57829,1.05259,2.15179,1.80817,.62194,.84449,.93953,1.87473,.90095,2.92282,.06675,2.02224-.82034,3.95837-2.3955,5.22833-1.75893,1.3724-3.94907,2.07365-6.17803,1.97812-1.83121,.10168-3.64336-.41596-5.1446-1.46953Z" fill="#fff"/><path d="M237.81042,9.12735v-.25742c0-.08872,.04998-.13496,.14995-.13496h3.43515c.09997,0,.14871,.04624,.14871,.13496v.25742c0,.08997-.04874,.13496-.14871,.13496h-1.36832c-.03998,0-.05873,.01874-.05873,.05373v3.64134c0,.08997-.04998,.13621-.14871,.13621h-.35738c-.09997,0-.14871-.04623-.14871-.13621v-3.64134c0-.03499-.02-.05373-.05999-.05373h-1.29334c-.09995-.00167-.14993-.04665-.14993-.13496Zm7.84-.39238h.37488c.09871,0,.14871,.04624,.14871,.13496v4.08745c0,.08997-.04998,.13621-.14871,.13621h-.35364c-.09871,0-.14871-.04623-.14871-.13621v-3.124c.00227-.02243-.00971-.04389-.02999-.05373-.02-.00875-.03499,0-.04374,.02749l-1.02716,1.4008c-.04149,.05549-.10832,.08609-.17744,.08122h-.07497c-.0695,.00507-.13681-.02553-.1787-.08122l-1.02592-1.40455c-.00999-.02749-.025-.03624-.04498-.02749-.02029,.00985-.03226,.0313-.02999,.05373v3.124c0,.08997-.04998,.13621-.14871,.13621h-.37488c-.09871,0-.14871-.04623-.14871-.13621v-4.0837c0-.08872,.04998-.13496,.14871-.13496h.38737c.06849,.00003,.13364,.02964,.1787,.08122l1.21961,1.68946c.01281,.00993,.02881,.01482,.04498,.01375,.01615,.00085,.03207-.00402,.04498-.01375l1.23336-1.68946c.0442-.05061,.10777-.08012,.17494-.08122h.00002Z" fill="#fff"/><path d="M194.37925,1.88715c.07715-.45146,.41573-.81362,.86097-.92096l2.68664-.51734c.28388-.08164,.58018,.08231,.66181,.36618,.0242,.08415,.02736,.17296,.00923,.25862l-3.63135,29.54683c-.01478,.25353-.22982,.44857-.48359,.43861h-3.21023c-.12424,.00901-.24578-.03933-.3299-.13121-.07284-.08459-.09736-.20057-.06498-.3074l3.5014-28.73334Zm-3.49889,28.74083l3.49889-28.73459c.07715-.45146,.41573-.81362,.86097-.92096l2.68664-.51734c.28388-.08164,.58018,.08231,.66181,.36618,.0242,.08415,.02736,.17296,.00923,.25862l-3.63135,29.54683" fill="#fff"/><path d="M130.50463,6.43695c-.28838,.00735-.52812-.22048-.53547-.50886-.00077-.03042,.00111-.06086,.00563-.09095l.32865-2.65665c.05902-.34972,.32201-.62994,.66728-.71102l3.03403-.56857c.2212-.06234,.45105,.06644,.51339,.28764,.01833,.06506,.02055,.1336,.00644,.19971l-.42236,3.4489c-.05032,.33829-.33663,.59138-.67853,.59981h-2.91907Z" fill="#fff"/><path d="M126.91952,31.03036l2.63791-21.4869c.01478-.25372,.22961-.44912,.4836-.43986h3.21023c.12454-.00926,.24634,.03965,.32989,.13246,.07178,.08512,.09618,.20052,.06498,.3074l-2.63791,21.49315c-.01478,.25372-.22961,.44912-.4836,.43986h-3.24896c-.29741-.00625-.41613-.15245-.35614-.44611Z" fill="#fff"/><path d="M237.49802,19.67648l-.11246,.73352c-.02014,.32643-.29806,.57657-.6248,.56232h-8.69847c-.10941-.01489-.21018,.06173-.22507,.17115-.00248,.01826-.00244,.03678,.00015,.05503l-1.12463,9.29579c-.03817,.14934-.11639,.28543-.22618,.39363-.10281,.10816-.24565,.16919-.39487,.1687h-.73226c-.37654,0-.52689-.18744-.4511-.56232l1.12463-9.29578c.0155-.10933-.06056-.21052-.16989-.22603-.01825-.00259-.03676-.00264-.05503-.00015h-8.69847c-.14179,.00446-.27739-.05803-.36613-.1687-.09415-.10785-.12625-.25654-.08496-.39363l.11246-.73352c.00854-.30744,.25611-.55447,.56358-.56232h8.69847c.06996,.0015,.13877-.0181,.19744-.05623,.05665-.03739,.08904-.10218,.08496-.16995l1.18338-9.52071c-.00057-.14914,.06102-.29177,.16995-.39362,.11993-.11652,.28285-.17806,.44986-.16995h.67729c.3374,0,.50735,.18869,.50735,.56357l-1.18462,9.52071c0,.1512,.05749,.22618,.16995,.22618h8.69847c.3415,0,.51185,.18744,.51101,.56232Z" fill="#fff"/></svg>